<?xml version="1.0" encoding="UTF-8" standalone="no"?>
<svg width="197px" height="20px" viewBox="0 0 197 20" version="1.1" xmlns="http://www.w3.org/2000/svg" xmlns:xlink="http://www.w3.org/1999/xlink">
    <!-- Generator: sketchtool 42 (36781) - http://www.bohemiancoding.com/sketch -->
    <title>A4F764D6-8E54-4C01-B327-10114D343BDF</title>
    <desc>Created with sketchtool.</desc>
    <defs></defs>
    <g id="00_Assets" stroke="none" stroke-width="1" fill="none" fill-rule="evenodd">
        <g id="Desktop-HD" transform="translate(-50.000000, -124.000000)">
            <g id="Logo" transform="translate(50.000000, 124.000000)">
                <g id="logo" transform="translate(2.122766, 0.000000)">
                    <g></g>
                </g>
                <g id="Group-4">
                    <path d="M85.1718082,15 L84.5682926,15 L84.5682926,6.99609375 L81.7850895,6.99609375 L81.7850895,6.43359375 L87.9550114,6.43359375 L87.9550114,6.99609375 L85.1718082,6.99609375 L85.1718082,15 Z M91.8908186,11.2675781 L91.8908186,15 L91.2931623,15 L91.2931623,6.43359375 L93.3322248,6.43359375 C94.3947301,6.43359375 95.1798785,6.62988085 95.6876936,7.02246094 C96.1955086,7.41504103 96.4494123,8.00585543 96.4494123,8.79492188 C96.4494123,9.3691435 96.2980467,9.85351365 95.9953108,10.2480469 C95.6925749,10.6425801 95.2326185,10.9257804 94.615428,11.0976562 L96.9415998,15 L96.2267561,15 L94.0177717,11.2675781 L91.8908186,11.2675781 Z M91.8908186,10.7519531 L93.5255842,10.7519531 C94.2482441,10.7519531 94.8087853,10.5908219 95.2072248,10.2685547 C95.6056643,9.94628745 95.8048811,9.47070627 95.8048811,8.84179688 C95.8048811,8.18944986 95.6095705,7.71484523 95.2189436,7.41796875 C94.8283166,7.12109227 94.1916042,6.97265625 93.3087873,6.97265625 L91.8908186,6.97265625 L91.8908186,10.7519531 Z M105.172329,15 L100.490688,15 L100.490688,6.43359375 L105.172329,6.43359375 L105.172329,6.984375 L101.088345,6.984375 L101.088345,10.2246094 L104.943813,10.2246094 L104.943813,10.7753906 L101.088345,10.7753906 L101.088345,14.4492188 L105.172329,14.4492188 L105.172329,15 Z M113.303449,11.9765625 L109.82298,11.9765625 L108.627667,15 L107.965558,15 L111.410871,6.3984375 L111.79173,6.3984375 L115.16673,15 L114.492902,15 L113.303449,11.9765625 Z M110.039777,11.4375 L113.10423,11.4375 L111.938214,8.34960938 C111.840558,8.10742066 111.723371,7.77148652 111.586652,7.34179688 C111.481183,7.71679875 111.365949,8.0566391 111.240949,8.36132812 L110.039777,11.4375 Z M123.174803,12.7910156 C123.174803,13.5058629 122.91211,14.0722635 122.386717,14.4902344 C121.861324,14.9082052 121.163088,15.1171875 120.29199,15.1171875 C119.24511,15.1171875 118.442384,15.0019543 117.883787,14.7714844 L117.883787,14.1738281 C118.500978,14.4355482 119.288079,14.5664062 120.245115,14.5664062 C120.948244,14.5664062 121.505855,14.405275 121.917967,14.0830078 C122.330078,13.7607406 122.536131,13.3378932 122.536131,12.8144531 C122.536131,12.4902328 122.467772,12.2216808 122.331053,12.0087891 C122.194333,11.7958974 121.971679,11.6015634 121.663084,11.4257812 C121.354489,11.2499991 120.901368,11.0605479 120.303709,10.8574219 C119.428705,10.5566391 118.824218,10.2314471 118.490232,9.88183594 C118.156246,9.53222481 117.989256,9.06640916 117.989256,8.484375 C117.989256,7.8437468 118.24023,7.32129108 118.742186,6.91699219 C119.244141,6.51269329 119.889643,6.31054688 120.678709,6.31054688 C121.483401,6.31054688 122.239252,6.4628891 122.946287,6.76757812 L122.72949,7.28320312 C122.018549,6.98632664 121.338869,6.83789062 120.690428,6.83789062 C120.057612,6.83789062 119.553711,6.98437354 119.178709,7.27734375 C118.803707,7.57031396 118.616209,7.96874748 118.616209,8.47265625 C118.616209,8.78906408 118.673826,9.04882711 118.789061,9.25195312 C118.904296,9.45507914 119.09277,9.6376945 119.35449,9.79980469 C119.61621,9.96191487 120.065425,10.1562489 120.702147,10.3828125 C121.370119,10.6132824 121.872067,10.836913 122.208006,11.0537109 C122.543945,11.2705089 122.78906,11.5166002 122.943357,11.7919922 C123.097655,12.0673842 123.174803,12.4003887 123.174803,12.7910156 Z M133.350844,6.43359375 L133.350844,11.9765625 C133.350844,12.9609424 133.065691,13.730466 132.495376,14.2851562 C131.92506,14.8398465 131.130146,15.1171875 130.11061,15.1171875 C129.118418,15.1171875 128.344011,14.83887 127.787368,14.2822266 C127.230724,13.7255832 126.952407,12.9492237 126.952407,11.953125 L126.952407,6.43359375 L127.555922,6.43359375 L127.555922,11.9765625 C127.555922,12.8007854 127.784436,13.4423805 128.241469,13.9013672 C128.698503,14.3603539 129.344981,14.5898438 130.180922,14.5898438 C130.997333,14.5898438 131.630139,14.3642601 132.07936,13.9130859 C132.528581,13.4619118 132.753188,12.8359415 132.753188,12.0351562 L132.753188,6.43359375 L133.350844,6.43359375 Z M138.347198,11.2675781 L138.347198,15 L137.749542,15 L137.749542,6.43359375 L139.788605,6.43359375 C140.85111,6.43359375 141.636258,6.62988085 142.144073,7.02246094 C142.651889,7.41504103 142.905792,8.00585543 142.905792,8.79492188 C142.905792,9.3691435 142.754427,9.85351365 142.451691,10.2480469 C142.148955,10.6425801 141.688998,10.9257804 141.071808,11.0976562 L143.39798,15 L142.683136,15 L140.474152,11.2675781 L138.347198,11.2675781 Z M138.347198,10.7519531 L139.981964,10.7519531 C140.704624,10.7519531 141.265165,10.5908219 141.663605,10.2685547 C142.062044,9.94628745 142.261261,9.47070627 142.261261,8.84179688 C142.261261,8.18944986 142.06595,7.71484523 141.675323,7.41796875 C141.284697,7.12109227 140.647984,6.97265625 139.765167,6.97265625 L138.347198,6.97265625 L138.347198,10.7519531 Z M148.915818,11.1210938 L151.423631,6.43359375 L152.068162,6.43359375 L149.214646,11.6894531 L149.214646,15 L148.599412,15 L148.599412,11.7363281 L145.734178,6.43359375 L146.419724,6.43359375 L148.915818,11.1210938 Z M165.213214,15 L160.531573,15 L160.531573,6.43359375 L165.213214,6.43359375 L165.213214,6.984375 L161.12923,6.984375 L161.12923,10.2246094 L164.984698,10.2246094 L164.984698,10.7753906 L161.12923,10.7753906 L161.12923,14.4492188 L165.213214,14.4492188 L165.213214,15 Z M175.72324,10.6347656 C175.72324,12.0722728 175.346291,13.159176 174.592381,13.8955078 C173.83847,14.6318396 172.73106,15 171.270115,15 L169.219334,15 L169.219334,6.43359375 L171.533787,6.43359375 C172.900981,6.43359375 173.94101,6.79101205 174.653904,7.50585938 C175.366798,8.2207067 175.72324,9.26366502 175.72324,10.6347656 Z M175.072849,10.6582031 C175.072849,9.43163449 174.761329,8.50879216 174.138279,7.88964844 C173.515229,7.27050472 172.600199,6.9609375 171.393162,6.9609375 L169.81699,6.9609375 L169.81699,14.4726562 L171.234959,14.4726562 C173.793565,14.4726562 175.072849,13.2011846 175.072849,10.6582031 Z M186.959828,10.7050781 C186.959828,12.0644599 186.619988,13.1396445 185.940297,13.9306641 C185.260606,14.7216836 184.323116,15.1171875 183.127797,15.1171875 C181.936385,15.1171875 181.000847,14.7216836 180.321156,13.9306641 C179.641466,13.1396445 179.301625,12.0605537 179.301625,10.6933594 C179.301625,9.33007131 179.644395,8.25683985 180.329946,7.47363281 C181.015496,6.69042577 181.95201,6.29882812 183.139516,6.29882812 C184.334834,6.29882812 185.270372,6.69237888 185.946156,7.47949219 C186.621941,8.2666055 186.959828,9.34179006 186.959828,10.7050781 Z M179.952016,10.7050781 C179.952016,11.9316468 180.225451,12.8798795 180.772328,13.5498047 C181.319206,14.2197299 182.104354,14.5546875 183.127797,14.5546875 C184.159052,14.5546875 184.94713,14.2226596 185.492055,13.5585938 C186.03698,12.8945279 186.309438,11.9433656 186.309438,10.7050781 C186.309438,9.47069695 186.03698,8.52441735 185.492055,7.86621094 C184.94713,7.20800452 184.162958,6.87890625 183.139516,6.87890625 C182.11998,6.87890625 181.333855,7.21093418 180.781117,7.875 C180.22838,8.53906582 179.952016,9.48241576 179.952016,10.7050781 Z M194.651495,6.84960938 C193.577271,6.84960938 192.731576,7.19335594 192.114386,7.88085938 C191.497195,8.56836281 191.188604,9.50975965 191.188604,10.7050781 C191.188604,11.9277405 191.479617,12.8769497 192.061651,13.5527344 C192.643685,14.228519 193.475708,14.5664062 194.557745,14.5664062 C195.276499,14.5664062 195.936648,14.4746103 196.538214,14.2910156 L196.538214,14.8183594 C195.971805,15.0175791 195.26478,15.1171875 194.41712,15.1171875 C193.213989,15.1171875 192.266733,14.7285195 191.575323,13.9511719 C190.883913,13.1738242 190.538214,12.0878976 190.538214,10.6933594 C190.538214,9.82226127 190.703251,9.05469082 191.033331,8.390625 C191.363411,7.72655918 191.838015,7.21386899 192.457159,6.85253906 C193.076303,6.49120913 193.796022,6.31054688 194.616339,6.31054688 C195.45228,6.31054688 196.20032,6.46679531 196.860479,6.77929688 L196.620245,7.31835938 C195.995242,7.00585781 195.338998,6.84960938 194.651495,6.84960938 Z" id="TREASURY-EDOC" fill="#FFFFFF"></path>
                    <polygon id="Fill-2" fill="#FFFFFF" points="3.57203166 16.4352163 17.4108871 16.4352163 17.4108871 3.46210158 3.57203166 3.46210158"></polygon>
                    <path d="M16.9616159,16.0274794 L11.9382429,12.0758494 C11.9382429,12.0758494 11.2604294,11.4550882 10.4908083,11.4550882 C9.72379163,11.4550882 9.04207141,12.0758494 9.04207141,12.0758494 L4.02130287,16.0274794 L4.00242046,16.0128302 L8.22101199,11.3049336 C8.22101199,11.3049336 8.88254757,10.667692 8.88254757,9.94682781 C8.88254757,9.22718434 8.22101199,8.59177394 8.22101199,8.59177394 L4.00242046,3.88021504 L4.02130287,3.86434504 L9.04337364,7.81780624 C9.04337364,7.81780624 9.72379163,8.43978817 10.4908083,8.43978817 C11.2604294,8.43978817 11.9382429,7.81780624 11.9382429,7.81780624 L16.9590114,3.8661762 L16.9752894,3.88143581 L12.763209,8.59177394 C12.763209,8.59177394 12.0997201,9.22718434 12.0997201,9.94682781 C12.0997201,10.667692 12.763209,11.3049336 12.763209,11.3049336 L16.9752894,16.0128302 L16.9616159,16.0274794 Z M20.3741237,5.51360429 C20.6690801,4.93068698 21.3136866,4.07492774 20.3624036,3.08366311 C19.5914803,2.36096772 18.7092158,2.48243426 18.1180009,2.79922388 C18.4572332,2.24499464 18.5861546,1.41792348 17.813929,0.6946177 C16.7545605,-0.197764618 15.8442979,0.407126543 15.2198761,0.681189239 C13.0770477,1.63277886 11.8588065,1.68588233 10.4914594,1.68588233 C9.12411223,1.68588233 7.90717327,1.63338925 5.7630427,0.681189239 C5.14122531,0.407736928 4.22770718,-0.197154233 3.17094317,0.6946177 C2.40001982,1.41853386 2.52763888,2.24499464 2.86556897,2.79922388 C2.27305187,2.48060311 1.39274075,2.36096772 0.621166279,3.08366311 C-0.33011667,4.07492774 0.315792081,4.93068698 0.609446161,5.51360429 C1.62063194,7.52665278 1.67532582,8.6650201 1.67532582,9.94682781 C1.67532582,11.2280251 1.62063194,12.3712755 0.609446161,14.3806617 C0.315792081,14.9641894 -0.33011667,15.8199486 0.621166279,16.8142652 C1.39339186,17.534519 2.27305187,17.4124421 2.86556897,17.098094 C2.52633665,17.6517129 2.39741535,18.4775633 3.17094317,19.2020898 C4.22770718,20.0944722 5.14057419,19.489581 5.7630427,19.2112456 C7.90717327,18.2639287 9.12281,18.2108252 10.4914594,18.2108252 C11.8588065,18.2108252 13.0770477,18.2639287 15.2185738,19.2112456 C15.8442979,19.489581 16.7545605,20.0944722 17.813929,19.2020898 C18.5848523,18.4769529 18.4572332,17.6517129 18.1166987,17.098094 C18.7092158,17.4148837 19.5921314,17.5363502 20.3624036,16.8142652 C21.3136866,15.8199486 20.6690801,14.9641894 20.3741237,14.3812721 C19.362938,12.3700548 19.3069418,11.2286355 19.3069418,9.94682781 C19.3069418,8.66685125 19.362938,7.52665278 20.3741237,5.51360429 Z" id="Fill-3" fill="#CC0000"></path>
                    <path d="M34.1723742,17.9084516 C35.8802303,17.3301231 38.002583,14.5771082 37.6522037,10.2368961 C37.3141298,6.03775463 35.6140456,2.7436637 31.0973267,2.43465184 C31.0973267,2.43465184 30.2424272,2.37663577 29.5248298,2.37175021 C28.7573632,2.36808604 28.5876786,2.34487961 28.5345712,3.1149665 C28.4322423,4.56292526 28.4018027,15.8528509 28.5028363,17.484629 C28.5177323,17.7063114 28.5429907,18.2449447 29.5313063,18.3353277 C31.3317764,18.5020475 32.8226693,18.3695266 34.1723742,17.9084516 M32.4243639,1.71891684 C36.2455055,1.70120667 41.2777547,4.174523 41.2602681,10.3498748 C41.2440769,15.7215514 37.1353781,19.0296883 33.3291325,19.0296883 L23.6888455,19.0315204 L23.7005032,18.8385407 C24.2458255,18.7518219 24.8474934,18.4305961 24.9504699,18.0898281 C25.2691143,16.7939325 25.2011109,4.95377031 25.002282,3.00565202 C24.9414028,2.39678872 24.434292,2.00411159 23.806718,1.90762172 L23.7950603,1.71830615 C23.7950603,1.71891684 31.5668738,1.72319171 32.4243639,1.71891684 M53.570173,14.784134 C53.6524247,11.0662205 50.7593671,10.0793367 47.7613901,9.92422008 C47.7005109,9.92055591 47.724474,9.77887458 47.7691619,9.77215693 C48.7445245,9.7367366 52.6161829,9.31352469 52.4542701,5.82706472 C52.2975386,2.43281975 49.5650985,2.35770422 48.5657728,2.34549031 C47.7510277,2.33755127 47.5729236,2.33755127 47.2316115,2.35098657 C46.653259,2.37236091 46.5081852,2.41144541 46.5107758,3.00809481 C46.5107758,3.08504242 46.3818932,9.12543051 46.3067657,13.3709849 C46.2685543,15.6794134 46.2627254,17.4620333 46.2627254,17.4620333 C46.2730878,17.8803596 46.2160945,18.3108999 47.321635,18.3609769 C48.4640916,18.4141074 49.9349073,18.4556347 50.9633772,18.2510517 C51.9044143,18.0592934 53.5138274,17.4131776 53.570173,14.784134 M52.3888574,9.78498153 C56.8880897,10.8378204 57.1601032,13.8998471 57.0946904,14.7597062 C56.8945662,18.5918197 53.4425857,19.0315204 52.0566123,19.0315204 L41.4448487,19.0315204 L41.4565064,18.8367086 C42.2265636,18.7402187 42.8049161,18.3396025 42.8049161,17.0644706 L42.8696812,3.86428974 C42.8858724,2.42976627 42.4836811,1.99495116 41.6423823,1.90212546 L41.6274863,1.71952754 L49.6538267,1.71952754 C51.1246424,1.71952754 55.558462,1.44227183 55.9353949,5.28721 C56.235905,8.36267197 52.653099,9.65123924 52.3888574,9.78498153 M69.6960383,1.77204734 L69.8741424,1.77021525 L69.9389075,4.85544836 L69.7400786,4.85300557 C69.4175483,3.60108003 68.1371421,2.4132775 65.571796,2.28747425 C62.5369028,2.13907527 61.2228187,3.8435261 61.209218,5.45331914 C61.1917314,7.59991343 62.9624096,8.04205689 65.5873396,8.64420255 C66.8269438,8.9287866 71.4123138,9.49429053 71.0457433,14.3542044 C70.7905687,17.7484494 67.6837863,19.3637387 63.2842922,19.2330499 C63.2842922,19.2330499 61.457916,19.1738124 58.9022847,18.5075438 C58.4243182,18.3829619 58.3051504,18.533193 58.1089121,18.8623578 L57.9042543,18.8727396 L57.9107308,15.5432284 L58.1140933,15.5554423 C58.2177175,15.8925461 58.2429759,16.5185089 58.8880364,17.0540887 C59.3660029,17.4449338 60.4689528,18.4141074 62.9015304,18.4373138 C65.2900677,18.4654058 67.266699,17.5133317 67.5348265,14.9954346 C67.6067158,14.3138985 67.5244641,12.7609002 65.916994,12.0500507 C64.6586079,11.4937072 61.1658254,11.1266793 59.4683318,9.72818686 C59.4683318,9.72818686 57.459318,8.41030621 57.77861,5.94492893 C58.2261369,2.46518661 61.3050704,1.59494568 64.071836,1.5393724 C64.071836,1.5393724 66.5510445,1.51799806 68.5218468,2.00044741 C68.5218468,2.00044741 69.0088805,2.12319719 69.4149577,1.97907308 C69.5710416,1.92716397 69.6507027,1.8306741 69.6960383,1.77204734" id="Fill-5" fill="#FFFFFF"></path>
                </g>
            </g>
        </g>
    </g>
</svg>