<svg width="12" height="14" viewBox="0 0 12 14" xmlns="http://www.w3.org/2000/svg"><title>6865005E-7C78-4A4C-AD95-636138B5D78B</title><path d="M11.469 2.969c.289.289.531.867.531 1.281v9a.75.75 0 0 1-.75.75H.75a.75.75 0 0 1-.75-.75V.75A.75.75 0 0 1 .75 0h7c.414 0 .992.242 1.281.531L11.47 2.97zM8 1.063V4h2.938a.995.995 0 0 0-.172-.32L8.32 1.234A.995.995 0 0 0 8 1.063zM11 13V5H7.75A.75.75 0 0 1 7 4.25V1H1v12h10zm-7.648-1v-.828h.53L5.399 8.96 3.922 6.836H3.39V6h2.265v.836h-.593l.828 1.242c.062.07.101.125.132.18.016.023.032.047.04.078h.015c0 .008.07-.11.164-.258l.805-1.242h-.578V6h2.18v.836h-.524L6.602 9.039l1.5 2.133h.53V12H6.36v-.828h.594l-.836-1.258c-.054-.078-.101-.125-.133-.187a.244.244 0 0 1-.039-.079H5.93c-.024 0-.07.118-.164.266l-.805 1.258h.586V12H3.352z" fill="#26A162" fill-rule="evenodd"/></svg>