<?xml version="1.0" encoding="UTF-8" standalone="no"?>
<svg width="26px" height="26px" viewBox="0 0 26 26" version="1.1" xmlns="http://www.w3.org/2000/svg" xmlns:xlink="http://www.w3.org/1999/xlink">
    <!-- Generator: sketchtool 42 (36781) - http://www.bohemiancoding.com/sketch -->
    <title>9F1FCBAF-11F5-41CC-B78F-A5D150F75F4E</title>
    <desc>Created with sketchtool.</desc>
    <defs></defs>
    <g id="00_Assets" stroke="none" stroke-width="1" fill="none" fill-rule="evenodd">
        <g id="Desktop-HD" transform="translate(-163.000000, -404.000000)" fill="#D3090F">
            <g id="expiring-soon" transform="translate(163.000000, 404.000000)">
                <path d="M13,22.75 C7.6375,22.75 3.25,18.3625 3.25,13 C3.25,7.6375 7.6375,3.25 13,3.25 C18.3625,3.25 22.75,7.6375 22.75,13 C22.75,18.3625 18.3625,22.75 13,22.75 M13,0 C5.85,0 0,5.85 0,13 C0,20.15 5.85,26 13,26 C20.15,26 26,20.15 26,13 C26,5.85 20.15,0 13,0" id="Fill-481"></path>
                <polygon id="Fill-482" points="11.5 7 14.5 7 14.5 15 11.5 15"></polygon>
                <path d="M13,16 C13.828,16 14.5,16.672 14.5,17.5 C14.5,18.328 13.828,19 13,19 C12.172,19 11.5,18.328 11.5,17.5 C11.5,16.672 12.172,16 13,16" id="Fill-483"></path>
            </g>
        </g>
    </g>
</svg>