<svg width="37" height="40" viewBox="0 0 37 40" xmlns="http://www.w3.org/2000/svg"><title>016930BF-2EF9-4876-8370-F18D8B859E92</title><g fill="#D3090F" fill-rule="evenodd"><path d="M29.11 27.478V18.5c0-5.02-3.485-9.206-8.161-10.316v-1.11A2.445 2.445 0 0 0 18.5 4.625a2.445 2.445 0 0 0-2.449 2.449v1.11C11.375 9.294 7.89 13.48 7.89 18.5v8.978l-3.265 3.265v1.632h27.75v-1.632l-3.265-3.265zM37 28.827V37H0v-8.173l3.265-3.265V18.5a15.227 15.227 0 0 1 8.524-13.671A7.073 7.073 0 0 1 18.5 0a7.073 7.073 0 0 1 6.71 4.829A15.227 15.227 0 0 1 33.736 18.5v7.062L37 28.827z" fill-rule="nonzero"/><path d="M18.5 40c2.486 0 4.5-2.238 4.5-5h-9c0 2.762 2.014 5 4.5 5z"/></g></svg>