<?xml version="1.0" encoding="UTF-8" standalone="no"?>
<svg width="20px" height="20px" viewBox="0 0 20 20" version="1.1" xmlns="http://www.w3.org/2000/svg" xmlns:xlink="http://www.w3.org/1999/xlink">
    <!-- Generator: sketchtool 42 (36781) - http://www.bohemiancoding.com/sketch -->
    <title>E8396468-4F95-4B84-BE7E-D5B0100EA978</title>
    <desc>Created with sketchtool.</desc>
    <defs></defs>
    <g id="00_Assets" stroke="none" stroke-width="1" fill="none" fill-rule="evenodd">
        <g id="Desktop-HD" transform="translate(-179.000000, -177.000000)">
            <g id="header-info" transform="translate(171.000000, 169.000000)">
                <g id="Group-8" transform="translate(9.000000, 9.000000)" stroke="#999999" stroke-width="2" stroke-linecap="round" stroke-linejoin="round">
                    <path d="M9,0 C13.9704545,0 18,4.02954545 18,9 C18,13.9704545 13.9704545,18 9,18 C4.02954545,18 0,13.9704545 0,9 C0,4.02954545 4.02954545,0 9,0 L9,0 Z" id="Stroke-490"></path>
                    <path d="M9,10.6363636 L9,9.81818182 C10.3090909,9.81818182 11.4545455,8.67272727 11.4545455,7.36363636 C11.4545455,6.05454545 10.3090909,4.90909091 9,4.90909091 C8.01818182,4.90909091 7.11818182,5.64545455 6.70909091,6.46363636" id="Stroke-491"></path>
                    <path d="M9,13.0909091 L9,13.9090909" id="Stroke-492"></path>
                </g>
                <rect id="Rectangle-13-Copy-3" x="0" y="0" width="36" height="36"></rect>
            </g>
        </g>
    </g>
</svg>