<?xml version="1.0" encoding="UTF-8" standalone="no"?>
<svg width="16px" height="16px" viewBox="0 0 16 16" version="1.1" xmlns="http://www.w3.org/2000/svg" xmlns:xlink="http://www.w3.org/1999/xlink">
    <!-- Generator: sketchtool 42 (36781) - http://www.bohemiancoding.com/sketch -->
    <title>68AC92C5-BE1A-45F8-9DC2-F9319CDF1F99</title>
    <desc>Created with sketchtool.</desc>
    <defs></defs>
    <g id="00_Assets" stroke="none" stroke-width="1" fill="none" fill-rule="evenodd">
        <g id="Desktop-HD" transform="translate(-96.000000, -510.000000)" fill="#A2A2A4">
            <g id="info-download" transform="translate(96.000000, 510.000000)">
                <path d="M8.4,12 C8.7,12 8.9,11.9 9.1,11.7 L14.8,6 L13.4,4.6 L9.4,8.6 L9.4,0 L7.4,0 L7.4,8.6 L3.4,4.6 L2,6 L7.7,11.7 C7.9,11.9 8.1,12 8.4,12" id="Fill-20"></path>
                <path d="M14,14 L2,14 L2,11 L0,11 L0,15 C0,15.6 0.4,16 1,16 L15,16 C15.6,16 16,15.6 16,15 L16,11 L14,11 L14,14 Z" id="Fill-22"></path>
            </g>
        </g>
    </g>
</svg>