<?xml version="1.0" encoding="UTF-8" standalone="no"?>
<svg width="18px" height="18px" viewBox="0 0 18 18" version="1.1" xmlns="http://www.w3.org/2000/svg" xmlns:xlink="http://www.w3.org/1999/xlink">
    <!-- Generator: sketchtool 42 (36781) - http://www.bohemiancoding.com/sketch -->
    <title>7F7D3D7C-CC66-457E-AE8D-A6C8AEB49AFA</title>
    <desc>Created with sketchtool.</desc>
    <defs></defs>
    <g id="00_Assets" stroke="none" stroke-width="1" fill="none" fill-rule="evenodd">
        <g id="Desktop-HD" transform="translate(-56.000000, -356.000000)" stroke="#FFFFFF">
            <g id="menu-dashboard-selected" transform="translate(57.000000, 357.000000)">
                <g id="Group-10">
                    <path d="M5.14285714,0 L0.857142857,0 C0.342857143,0 0,0.342857143 0,0.857142857 L0,5.14285714 C0,5.65714286 0.342857143,6 0.857142857,6 L5.14285714,6 C5.65714286,6 6,5.65714286 6,5.14285714 L6,0.857142857 C6,0.342857143 5.65714286,0 5.14285714,0" id="Fill-246"></path>
                    <path d="M15.1428571,0 L10.8571429,0 C10.3428571,0 10,0.342857143 10,0.857142857 L10,5.14285714 C10,5.65714286 10.3428571,6 10.8571429,6 L15.1428571,6 C15.6571429,6 16,5.65714286 16,5.14285714 L16,0.857142857 C16,0.342857143 15.6571429,0 15.1428571,0" id="Fill-247"></path>
                    <path d="M5.14285714,10 L0.857142857,10 C0.342857143,10 0,10.3428571 0,10.8571429 L0,15.1428571 C0,15.6571429 0.342857143,16 0.857142857,16 L5.14285714,16 C5.65714286,16 6,15.6571429 6,15.1428571 L6,10.8571429 C6,10.3428571 5.65714286,10 5.14285714,10" id="Fill-248"></path>
                    <path d="M15.1428571,10 L10.8571429,10 C10.3428571,10 10,10.3428571 10,10.8571429 L10,15.1428571 C10,15.6571429 10.3428571,16 10.8571429,16 L15.1428571,16 C15.6571429,16 16,15.6571429 16,15.1428571 L16,10.8571429 C16,10.3428571 15.6571429,10 15.1428571,10" id="Fill-249"></path>
                </g>
            </g>
        </g>
    </g>
</svg>