<?xml version="1.0" encoding="UTF-8" standalone="no"?>
<svg width="24px" height="24px" viewBox="0 0 24 24" version="1.1" xmlns="http://www.w3.org/2000/svg" xmlns:xlink="http://www.w3.org/1999/xlink">
    <!-- Generator: sketchtool 42 (36781) - http://www.bohemiancoding.com/sketch -->
    <title>F62C369D-3E76-47D8-BE9E-2537AB7B274F</title>
    <desc>Created with sketchtool.</desc>
    <defs></defs>
    <g id="00_Assets" stroke="none" stroke-width="1" fill="none" fill-rule="evenodd" stroke-linecap="round" stroke-linejoin="round">
        <g id="Desktop-HD" transform="translate(-268.000000, -352.000000)" stroke="#FFFFFF">
            <g id="menu-settings-selected" transform="translate(269.000000, 353.000000)">
                <path d="M22,13 L22,9 L18.738,9 C18.549,8.268 18.261,7.578 17.886,6.942 L20.192,4.636 L17.364,1.808 L15.058,4.114 C14.422,3.739 13.732,3.451 13,3.262 L13,0 L9,0 L9,3.262 C8.268,3.451 7.578,3.739 6.942,4.114 L4.636,1.808 L1.808,4.636 L4.114,6.942 C3.739,7.578 3.451,8.268 3.262,9 L0,9 L0,13 L3.262,13 C3.451,13.732 3.739,14.422 4.114,15.058 L1.808,17.364 L4.636,20.192 L6.942,17.886 C7.577,18.261 8.268,18.549 9,18.738 L9,22 L13,22 L13,18.738 C13.732,18.549 14.422,18.261 15.058,17.886 L17.364,20.192 L20.192,17.364 L17.886,15.058 C18.261,14.423 18.549,13.732 18.738,13 L22,13 L22,13 Z" id="Stroke-418"></path>
                <path d="M11,8 C12.657,8 14,9.343 14,11 C14,12.657 12.657,14 11,14 C9.343,14 8,12.657 8,11 C8,9.343 9.343,8 11,8 L11,8 Z" id="Stroke-419"></path>
            </g>
        </g>
    </g>
</svg>