<svg width="12" height="14" viewBox="0 0 12 14" xmlns="http://www.w3.org/2000/svg"><title>8CAF1C7B-E59A-4D38-ACAB-C7F2F7EF74A8</title><path d="M11.469 2.969c.289.289.531.867.531 1.281v9a.75.75 0 0 1-.75.75H.75a.75.75 0 0 1-.75-.75V.75A.75.75 0 0 1 .75 0h7c.414 0 .992.242 1.281.531L11.47 2.97zM8 1.063V4h2.938a.995.995 0 0 0-.172-.32L8.32 1.234A.995.995 0 0 0 8 1.063zM11 13V5H7.75A.75.75 0 0 1 7 4.25V1H1v12h10zM6.984 8.367c.196.156.414.297.657.438.328-.04.632-.055.914-.055.523 0 1.187.063 1.383.383.054.078.101.219.015.406-.008.008-.015.024-.023.031v.008c-.024.14-.14.297-.555.297-.5 0-1.258-.227-1.914-.57-1.086.117-2.227.36-3.063.648C3.594 11.328 2.977 12 2.508 12a.433.433 0 0 1-.219-.055l-.187-.093c-.024-.008-.032-.024-.047-.04-.04-.039-.07-.124-.047-.28.078-.36.5-.962 1.469-1.47.062-.039.14-.015.18.047a.06.06 0 0 1 .015.032c.242-.399.523-.907.836-1.54.351-.703.625-1.39.812-2.046-.25-.852-.328-1.727-.187-2.242.055-.196.172-.313.328-.313h.172c.117 0 .21.04.273.117.094.11.117.281.07.531-.007.024-.015.047-.03.063.007.023.007.039.007.062v.235c-.008.492-.015.96-.11 1.5.274.82.68 1.484 1.141 1.86zm-4.5 3.211c.235-.11.57-.445 1.07-1.234-.585.453-.952.969-1.07 1.234zm3.11-7.187c-.078.218-.078.593-.016 1.03.024-.124.04-.241.055-.343.015-.133.039-.242.055-.336a.234.234 0 0 1 .03-.062c-.007-.008-.007-.024-.015-.04a.452.452 0 0 0-.101-.28c0 .015-.008.023-.008.03zm-.969 5.164a11.923 11.923 0 0 1 2.219-.633c-.078-.063-.156-.117-.227-.18-.383-.336-.726-.804-.992-1.375-.148.477-.367.985-.648 1.54-.118.218-.235.437-.352.648zm5.047-.125c-.04-.04-.242-.188-1.094-.188.383.14.735.219.969.219.07 0 .11 0 .14-.008 0-.008-.007-.015-.015-.023z" fill="#D3090F" fill-rule="evenodd"/></svg>