<?xml version="1.0" encoding="UTF-8" standalone="no"?>
<svg width="32px" height="26px" viewBox="0 0 32 26" version="1.1" xmlns="http://www.w3.org/2000/svg" xmlns:xlink="http://www.w3.org/1999/xlink">
    <!-- Generator: sketchtool 42 (36781) - http://www.bohemiancoding.com/sketch -->
    <title>60575E0C-A1DE-4330-BDD6-6EBBBA53EC3F</title>
    <desc>Created with sketchtool.</desc>
    <defs></defs>
    <g id="00_Assets" stroke="none" stroke-width="1" fill="none" fill-rule="evenodd">
        <g id="Desktop-HD" transform="translate(-107.000000, -404.000000)" fill="#D3090F">
            <g id="pending-2nd-approval" transform="translate(107.000000, 404.000000)">
                <g id="Group">
                    <polygon id="Shape" points="15.521 20.972 10 15.237 12.059 13.1 15.521 16.7 22.939 9 24.999 11.138"></polygon>
                    <polygon id="Shape-Copy" points="22.521 20.972 19.6970272 18.0385669 21.7410443 15.8889542 22.521 16.7 29.939 9 31.999 11.138"></polygon>
                    <path d="M20,10.8243407 L20,6.08510638 L13.8340358,0 L0,0 L0,26 L20,26 L20,17.6196983 L17,20.6999969 L17,22.88 L3,22.88 L3,3.12 L11,3.12 L11,9.92648649 L17,9.92648649 L17,13.6999969 L20,10.8243407 Z" id="Combined-Shape"></path>
                </g>
            </g>
        </g>
    </g>
</svg>