<?xml version="1.0" encoding="UTF-8" standalone="no"?>
<svg width="16px" height="14px" viewBox="0 0 16 14" version="1.1" xmlns="http://www.w3.org/2000/svg" xmlns:xlink="http://www.w3.org/1999/xlink">
    <!-- Generator: sketchtool 42 (36781) - http://www.bohemiancoding.com/sketch -->
    <title>1EE7F4F9-6113-4ACC-99CE-90A144A4BAAE</title>
    <desc>Created with sketchtool.</desc>
    <defs></defs>
    <g id="00_Assets" stroke="none" stroke-width="1" fill="none" fill-rule="evenodd">
        <g id="Desktop-HD" transform="translate(-173.000000, -511.000000)" fill="#FFFFFF">
            <g id="settings-language" transform="translate(173.000000, 511.000000)">
                <path d="M11.041179,4.31548986 L12.5114868,4.31548986 L16,14 L14.5713047,14 L13.5656697,11.0994707 L9.79973992,11.0994707 L8.75942783,14 L7.42089293,14 L11.041179,4.31548986 Z M13.1980928,10.0312594 L11.7208496,5.75282133 L10.1811877,10.0312594 L13.1980928,10.0312594 L13.1980928,10.0312594 Z M8.69405717,10.6123999 C7.56547568,10.0354254 6.51855994,9.30545 5.58300824,8.44152602 C4.39255311,9.33063301 3.14874515,10.1447605 1.85869094,10.879257 L1.11660165,9.75441925 C2.34890701,9.02683447 3.52856453,8.21222108 4.64672735,7.31668831 C4.26527958,6.95735544 2.42045947,4.87895736 2.23320329,3.75132328 L3.71738188,3.75132328 C4.15209857,4.74719936 4.7874086,5.64113203 5.58300824,6.37641067 C6.67782409,5.50884208 7.35388299,4.21201714 7.44169918,2.81104564 L8.92587776,2.81104564 C8.69227065,4.51787416 7.90743207,6.09962064 6.69267447,7.31179467 C7.43091234,8.07738129 8.27546787,8.72770227 9.19819016,9.24335611 C9.19819016,9.24335611 8.69405717,10.6123999 8.69405717,10.6123999 Z M0,2.81524019 L10.4169918,2.81524019 L10.4169918,1.31499051 L6.13784135,1.31499051 L6.13784135,0 L4.46640659,0 L4.46640659,1.31289324 L0,1.31289324 L0,2.81314291 L0,2.81524019 Z" id="Shape"></path>
            </g>
        </g>
    </g>
</svg>