<?xml version="1.0" encoding="UTF-8" standalone="no"?>
<svg width="13px" height="13px" viewBox="0 0 13 13" version="1.1" xmlns="http://www.w3.org/2000/svg" xmlns:xlink="http://www.w3.org/1999/xlink">
    <!-- Generator: sketchtool 42 (36781) - http://www.bohemiancoding.com/sketch -->
    <title>213B6D0C-B5A0-4EBE-82A3-F3415D72C427</title>
    <desc>Created with sketchtool.</desc>
    <defs></defs>
    <g id="00_Assets" stroke="none" stroke-width="1" fill="none" fill-rule="evenodd">
        <g id="Desktop-HD" transform="translate(-136.000000, -512.000000)" fill="#A2A2A4">
            <g id="icon-timestamp" transform="translate(136.000000, 512.000000)">
                <g id="lastlogin">
                    <path d="M8.363,9.512 L5.687,6.837 L5.687,3.25 L7.312,3.25 L7.312,6.164 L9.512,8.364 L8.363,9.512 Z M6.5,0 C2.91014913,0 0,2.91014913 0,6.5 C0,10.0898509 2.91014913,13 6.5,13 C10.0898509,13 13,10.0898509 13,6.5 C13,2.91014913 10.0898509,0 6.5,0 L6.5,0 Z M6.5,11.375 C3.80761184,11.375 1.625,9.19238816 1.625,6.5 C1.625,3.80761184 3.80761184,1.625 6.5,1.625 C9.19238816,1.625 11.375,3.80761184 11.375,6.5 C11.3752653,7.79301171 10.8617359,9.03314119 9.94743855,9.94743855 C9.03314119,10.8617359 7.79301171,11.3752653 6.5,11.375 L6.5,11.375 Z" id="Color_Fill_1"></path>
                </g>
            </g>
        </g>
    </g>
</svg>