<?xml version="1.0" encoding="UTF-8" standalone="no"?>
<svg width="26px" height="24px" viewBox="0 0 26 24" version="1.1" xmlns="http://www.w3.org/2000/svg" xmlns:xlink="http://www.w3.org/1999/xlink">
    <!-- Generator: sketchtool 42 (36781) - http://www.bohemiancoding.com/sketch -->
    <title>3D9F8D6F-0C84-4A1B-89E4-201AA059FAE1</title>
    <desc>Created with sketchtool.</desc>
    <defs></defs>
    <g id="00_Assets" stroke="none" stroke-width="1" fill="none" fill-rule="evenodd">
        <g id="Desktop-HD" transform="translate(-213.000000, -405.000000)" fill-rule="nonzero" fill="#D3090F">
            <g id="user-guide" transform="translate(213.000000, 405.000000)">
                <path d="M11.5,5 L11.5,22 C11.5,22.8284271 12.1715729,23.5 13,23.5 C13.8284271,23.5 14.5,22.8284271 14.5,22 L14.5,5 C14.5,4.17157288 13.8284271,3.5 13,3.5 C12.1715729,3.5 11.5,4.17157288 11.5,5 Z" id="Stroke-2191"></path>
                <path d="M12.6053239,6.44714573 C12.8637225,6.51761809 13.1362775,6.51761809 13.3946761,6.44714573 L22.5,3.96387558 L22.5,17.8543062 L13,20.4452153 L3.5,17.8543062 L3.5,3.96387558 L12.6053239,6.44714573 Z M13,3.44521533 L2.39467611,0.552854268 C1.44046668,0.292615332 0.5,1.01093987 0.5,2 L0.5,19 C0.5,19.6764266 0.952731994,20.2691661 1.60532389,20.4471457 L12.6053239,23.4471457 C12.8637225,23.5176181 13.1362775,23.5176181 13.3946761,23.4471457 L24.3946761,20.4471457 C25.047268,20.2691661 25.5,19.6764266 25.5,19 L25.5,2 C25.5,1.01093987 24.5595333,0.292615332 23.6053239,0.552854268 L13,3.44521533 Z" id="Stroke-2232"></path>
            </g>
        </g>
    </g>
</svg>